# xmcd
#
# Track frame offsets:
# 150
# 21875
# 38962
# 55059
# 77976
# 97468
# 115955
# 138352
# 156949
# 173298
# 188755
# 203742
# 223734
# 244541
# 268178
# 287223
# 305507
#
# Disc length: 4260 seconds
#
# Revision: 0
# Processed by: cddbd v1.5.2PL0 Copyright (c) Steve Scherf et al.
# Submitted via: Audion 3.0.2 (http://www.panic.com/audion/)
#
DISCID=f810a211
DTITLE=Bee Gees - Recuerdos 80
DYEAR=1900
DGENRE=
TTITLE0=Stayin Alive
TTITLE1=Live Talking
TTITLE2=Nigth Forever
TTITLE3=Tragedy
TTITLE4=You Shoul Be Dancing
TTITLE5=How Deep is Your Love
TTITLE6=To Much Heaven
TTITLE7=Dont't Throw it all Away
TTITLE8=Love so riht
TTITLE9=If Cant't Have You
TTITLE10=More Than a Woman
TTITLE11=Rest Your Love on me
TTITLE12=Nights on Droadway
TTITLE13=Spirrts
TTITLE14=Love Inside out
TTITLE15=Children of the word
TTITLE16=a
EXTD=
EXTT0=
EXTT1=
EXTT2=
EXTT3=
EXTT4=
EXTT5=
EXTT6=
EXTT7=
EXTT8=
EXTT9=
EXTT10=
EXTT11=
EXTT12=
EXTT13=
EXTT14=
EXTT15=
EXTT16=
PLAYORDER=
